<mxfile host="65bd71144e">
    <diagram id="pAi_KdXQo00Ve_mjZ8XZ" name="PÃ¡gina-1">
        <mxGraphModel dx="1593" dy="437" grid="1" gridSize="10" guides="1" tooltips="1" connect="1" arrows="1" fold="1" page="1" pageScale="1" pageWidth="827" pageHeight="1169" math="0" shadow="0">
            <root>
                <mxCell id="0"/>
                <mxCell id="1" parent="0"/>
                <mxCell id="4" value="" style="edgeStyle=none;html=1;fontSize=18;" parent="1" source="2" target="3" edge="1">
                    <mxGeometry relative="1" as="geometry"/>
                </mxCell>
                <mxCell id="2" value="&lt;font style=&quot;font-size: 18px&quot;&gt;Inicio&lt;/font&gt;" style="ellipse;whiteSpace=wrap;html=1;fillColor=#6a00ff;fontColor=#ffffff;strokeColor=#3700CC;" parent="1" vertex="1">
                    <mxGeometry x="250" y="80" width="120" height="80" as="geometry"/>
                </mxCell>
                <mxCell id="6" style="edgeStyle=none;html=1;fontSize=18;" parent="1" source="3" target="5" edge="1">
                    <mxGeometry relative="1" as="geometry"/>
                </mxCell>
                <mxCell id="3" value="&lt;font style=&quot;font-size: 18px&quot;&gt;a,b&lt;/font&gt;" style="shape=parallelogram;perimeter=parallelogramPerimeter;whiteSpace=wrap;html=1;fixedSize=1;fillColor=#76608a;fontColor=#ffffff;strokeColor=#432D57;" parent="1" vertex="1">
                    <mxGeometry x="250" y="210" width="120" height="60" as="geometry"/>
                </mxCell>
                <mxCell id="28" style="edgeStyle=none;html=1;entryX=0.5;entryY=0;entryDx=0;entryDy=0;" edge="1" parent="1" source="5" target="26">
                    <mxGeometry relative="1" as="geometry">
                        <Array as="points">
                            <mxPoint x="580" y="410"/>
                        </Array>
                    </mxGeometry>
                </mxCell>
                <mxCell id="46" style="edgeStyle=none;html=1;fontSize=18;entryX=0.5;entryY=0;entryDx=0;entryDy=0;" edge="1" parent="1" source="5" target="39">
                    <mxGeometry relative="1" as="geometry">
                        <Array as="points">
                            <mxPoint x="5" y="420"/>
                        </Array>
                    </mxGeometry>
                </mxCell>
                <mxCell id="5" value="a&amp;gt;b" style="rhombus;whiteSpace=wrap;html=1;fontSize=18;fillColor=#e3c800;fontColor=#000000;strokeColor=#B09500;" parent="1" vertex="1">
                    <mxGeometry x="250" y="340" width="130" height="140" as="geometry"/>
                </mxCell>
                <mxCell id="49" style="edgeStyle=none;html=1;fontSize=18;" edge="1" parent="1" source="15">
                    <mxGeometry relative="1" as="geometry">
                        <mxPoint x="550" y="890" as="targetPoint"/>
                        <Array as="points">
                            <mxPoint x="720" y="890"/>
                        </Array>
                    </mxGeometry>
                </mxCell>
                <mxCell id="15" value="a es multiplo de b" style="shape=document;whiteSpace=wrap;html=1;boundedLbl=1;fontSize=18;gradientColor=#00994D;fillColor=#994C00;" parent="1" vertex="1">
                    <mxGeometry x="645" y="740" width="160" height="90" as="geometry"/>
                </mxCell>
                <mxCell id="16" value="Falso" style="text;strokeColor=#6F0000;fillColor=#a20025;html=1;fontSize=24;fontStyle=1;verticalAlign=middle;align=center;fontColor=#ffffff;gradientColor=#FF0000;" parent="1" vertex="1">
                    <mxGeometry x="120" y="350" width="100" height="40" as="geometry"/>
                </mxCell>
                <mxCell id="17" value="Verdadero" style="text;strokeColor=#005700;fillColor=#008a00;html=1;fontSize=24;fontStyle=1;verticalAlign=middle;align=center;fontColor=#ffffff;gradientColor=#00FF00;" parent="1" vertex="1">
                    <mxGeometry x="400" y="350" width="130" height="40" as="geometry"/>
                </mxCell>
                <mxCell id="23" value="Fin" style="ellipse;whiteSpace=wrap;html=1;fontSize=18;fillColor=#6a00ff;fontColor=#ffffff;strokeColor=#3700CC;" parent="1" vertex="1">
                    <mxGeometry x="210" y="1040" width="120" height="80" as="geometry"/>
                </mxCell>
                <mxCell id="34" style="edgeStyle=none;html=1;fontSize=18;" edge="1" parent="1" source="26" target="30">
                    <mxGeometry relative="1" as="geometry"/>
                </mxCell>
                <mxCell id="26" value="&lt;span style=&quot;font-size: 18px ; font-weight: 400&quot;&gt;x=a/b&lt;/span&gt;" style="text;strokeColor=#005700;fillColor=#B266FF;html=1;fontSize=24;fontStyle=1;verticalAlign=middle;align=center;fontColor=#ffffff;gradientColor=#660033;" vertex="1" parent="1">
                    <mxGeometry x="500" y="500" width="150" height="70" as="geometry"/>
                </mxCell>
                <mxCell id="29" style="edgeStyle=none;html=1;" edge="1" parent="1" source="30" target="15">
                    <mxGeometry relative="1" as="geometry">
                        <Array as="points">
                            <mxPoint x="725" y="660"/>
                        </Array>
                        <mxPoint x="725" y="750" as="targetPoint"/>
                    </mxGeometry>
                </mxCell>
                <mxCell id="36" style="edgeStyle=none;html=1;entryX=0.5;entryY=0;entryDx=0;entryDy=0;fontSize=18;" edge="1" parent="1" source="30" target="35">
                    <mxGeometry relative="1" as="geometry">
                        <Array as="points">
                            <mxPoint x="400" y="660"/>
                        </Array>
                    </mxGeometry>
                </mxCell>
                <mxCell id="30" value="x=int(x)" style="rhombus;whiteSpace=wrap;html=1;fontSize=18;fillColor=#e3c800;fontColor=#000000;strokeColor=#B09500;" vertex="1" parent="1">
                    <mxGeometry x="510" y="590" width="130" height="140" as="geometry"/>
                </mxCell>
                <mxCell id="31" value="Falso" style="text;strokeColor=#6F0000;fillColor=#a20025;html=1;fontSize=24;fontStyle=1;verticalAlign=middle;align=center;fontColor=#ffffff;gradientColor=#FF0000;" vertex="1" parent="1">
                    <mxGeometry x="380" y="600" width="100" height="40" as="geometry"/>
                </mxCell>
                <mxCell id="32" value="Verdadero" style="text;strokeColor=#005700;fillColor=#008a00;html=1;fontSize=24;fontStyle=1;verticalAlign=middle;align=center;fontColor=#ffffff;gradientColor=#00FF00;" vertex="1" parent="1">
                    <mxGeometry x="660" y="600" width="130" height="40" as="geometry"/>
                </mxCell>
                <mxCell id="50" style="edgeStyle=none;html=1;fontSize=18;" edge="1" parent="1" source="35">
                    <mxGeometry relative="1" as="geometry">
                        <mxPoint x="560" y="890" as="targetPoint"/>
                        <Array as="points">
                            <mxPoint x="400" y="890"/>
                        </Array>
                    </mxGeometry>
                </mxCell>
                <mxCell id="35" value="a NO es multiplo de b" style="shape=document;whiteSpace=wrap;html=1;boundedLbl=1;fontSize=18;gradientColor=#990000;fillColor=#994C00;" vertex="1" parent="1">
                    <mxGeometry x="310" y="730" width="180" height="90" as="geometry"/>
                </mxCell>
                <mxCell id="47" style="edgeStyle=none;html=1;fontSize=18;" edge="1" parent="1" source="37">
                    <mxGeometry relative="1" as="geometry">
                        <mxPoint y="880" as="targetPoint"/>
                        <Array as="points">
                            <mxPoint x="155" y="880"/>
                        </Array>
                    </mxGeometry>
                </mxCell>
                <mxCell id="37" value="b es multiplo de a" style="shape=document;whiteSpace=wrap;html=1;boundedLbl=1;fontSize=18;gradientColor=#00994D;fillColor=#994C00;" vertex="1" parent="1">
                    <mxGeometry x="75" y="730" width="160" height="90" as="geometry"/>
                </mxCell>
                <mxCell id="38" style="edgeStyle=none;html=1;fontSize=18;" edge="1" parent="1" source="39" target="42">
                    <mxGeometry relative="1" as="geometry"/>
                </mxCell>
                <mxCell id="39" value="&lt;span style=&quot;font-size: 18px ; font-weight: 400&quot;&gt;x=b/a&lt;/span&gt;" style="text;strokeColor=#005700;fillColor=#B266FF;html=1;fontSize=24;fontStyle=1;verticalAlign=middle;align=center;fontColor=#ffffff;gradientColor=#660033;" vertex="1" parent="1">
                    <mxGeometry x="-70" y="480" width="150" height="70" as="geometry"/>
                </mxCell>
                <mxCell id="40" style="edgeStyle=none;html=1;" edge="1" parent="1" source="42" target="37">
                    <mxGeometry relative="1" as="geometry">
                        <Array as="points">
                            <mxPoint x="155" y="640"/>
                        </Array>
                        <mxPoint x="155" y="730" as="targetPoint"/>
                    </mxGeometry>
                </mxCell>
                <mxCell id="41" style="edgeStyle=none;html=1;entryX=0.5;entryY=0;entryDx=0;entryDy=0;fontSize=18;" edge="1" parent="1" source="42" target="45">
                    <mxGeometry relative="1" as="geometry">
                        <Array as="points">
                            <mxPoint x="-170" y="640"/>
                        </Array>
                    </mxGeometry>
                </mxCell>
                <mxCell id="42" value="x=int(x)" style="rhombus;whiteSpace=wrap;html=1;fontSize=18;fillColor=#e3c800;fontColor=#000000;strokeColor=#B09500;" vertex="1" parent="1">
                    <mxGeometry x="-60" y="570" width="130" height="140" as="geometry"/>
                </mxCell>
                <mxCell id="43" value="Falso" style="text;strokeColor=#6F0000;fillColor=#a20025;html=1;fontSize=24;fontStyle=1;verticalAlign=middle;align=center;fontColor=#ffffff;gradientColor=#FF0000;" vertex="1" parent="1">
                    <mxGeometry x="-190" y="580" width="100" height="40" as="geometry"/>
                </mxCell>
                <mxCell id="44" value="Verdadero" style="text;strokeColor=#005700;fillColor=#008a00;html=1;fontSize=24;fontStyle=1;verticalAlign=middle;align=center;fontColor=#ffffff;gradientColor=#00FF00;" vertex="1" parent="1">
                    <mxGeometry x="90" y="580" width="130" height="40" as="geometry"/>
                </mxCell>
                <mxCell id="48" style="edgeStyle=none;html=1;fontSize=18;" edge="1" parent="1" source="45">
                    <mxGeometry relative="1" as="geometry">
                        <mxPoint y="880" as="targetPoint"/>
                        <Array as="points">
                            <mxPoint x="-170" y="880"/>
                        </Array>
                    </mxGeometry>
                </mxCell>
                <mxCell id="45" value="b NO es multiplo de a" style="shape=document;whiteSpace=wrap;html=1;boundedLbl=1;fontSize=18;gradientColor=#990000;fillColor=#994C00;" vertex="1" parent="1">
                    <mxGeometry x="-260" y="710" width="180" height="90" as="geometry"/>
                </mxCell>
                <mxCell id="51" value="" style="endArrow=classic;html=1;fontSize=18;" edge="1" parent="1">
                    <mxGeometry width="50" height="50" relative="1" as="geometry">
                        <mxPoint y="880" as="sourcePoint"/>
                        <mxPoint x="270" y="970" as="targetPoint"/>
                        <Array as="points">
                            <mxPoint y="970"/>
                        </Array>
                    </mxGeometry>
                </mxCell>
                <mxCell id="52" value="" style="endArrow=classic;html=1;fontSize=18;" edge="1" parent="1">
                    <mxGeometry width="50" height="50" relative="1" as="geometry">
                        <mxPoint x="550" y="890" as="sourcePoint"/>
                        <mxPoint x="270" y="970" as="targetPoint"/>
                        <Array as="points">
                            <mxPoint x="550" y="970"/>
                        </Array>
                    </mxGeometry>
                </mxCell>
                <mxCell id="53" value="" style="endArrow=classic;html=1;fontSize=18;" edge="1" parent="1" target="23">
                    <mxGeometry width="50" height="50" relative="1" as="geometry">
                        <mxPoint x="270" y="970" as="sourcePoint"/>
                        <mxPoint x="490" y="890" as="targetPoint"/>
                    </mxGeometry>
                </mxCell>
            </root>
        </mxGraphModel>
    </diagram>
</mxfile>